<svg viewBox="0 0 289 53" width="289" height="53" fill="none" xmlns="http://www.w3.org/2000/svg">
<g id="Type">
<path id="Vector" d="M266.348 40.8861C268.703 41.1324 270.449 41.2556 271.587 41.2556C272.764 41.2556 274.531 41.0914 276.887 40.7629C277.618 41.0092 278.044 41.3172 278.166 41.6868C278.288 42.0564 278.328 42.4465 278.288 42.8571C278.247 43.2267 278.268 43.5963 278.349 43.9659C278.43 44.3354 278.816 44.6434 279.506 44.8898C279.872 45.013 279.973 45.3826 279.811 45.9985C279.689 46.5734 279.364 47.2099 278.836 47.908C277.496 49.6738 275.912 50.9057 274.084 51.6038C271.16 52.343 268.866 52.7741 267.2 52.8973C264.439 53.1027 261.433 53 258.184 52.5894C254.61 51.9323 252.884 50.4335 253.006 48.0928C253.006 39.4693 254.874 30.8048 258.611 22.0992C259.829 19.2657 261.21 16.2886 262.753 13.1677C263.078 12.5107 263.261 11.7715 263.302 10.9502C263.383 10.1289 263.444 9.32819 263.484 8.54797C263.525 7.76775 263.647 7.06966 263.85 6.45369C264.053 5.83773 264.479 5.40655 265.129 5.16017C273.577 1.75184 280.258 0.437782 285.172 1.218C286.878 1.25907 287.994 1.8545 288.522 3.0043C289.091 4.11303 289.152 5.36549 288.705 6.76168C288.299 8.15786 287.466 9.47191 286.207 10.7038C284.989 11.9358 283.446 12.6955 281.578 12.9829C279.181 13.681 277.719 14.1532 277.191 14.3996C276.176 14.8924 275.445 15.5494 274.998 16.3707C274.43 17.2741 273.902 18.1365 273.414 18.9578C272.927 19.779 272.582 20.6619 272.379 21.6064L272.135 22.9615C272.907 23.3311 273.841 23.4543 274.937 23.3311C276.074 23.1668 277.11 23.0231 278.044 22.8999C279.019 22.7357 279.791 22.7151 280.359 22.8383C280.968 22.9615 281.09 23.5775 280.725 24.6862C280.4 25.7539 279.77 26.9653 278.836 28.3204C277.943 29.6755 276.663 30.6611 274.998 31.277C273.942 31.4823 273.211 31.6466 272.805 31.7698C272.44 31.8519 272.155 31.9135 271.952 31.9546C271.668 31.9956 270.856 32.0572 269.515 32.1394C267.607 35.4245 266.449 37.9705 266.043 39.7773C265.88 40.5165 265.982 40.8861 266.348 40.8861Z" fill="#0C0D0D"/>
<path id="Vector_2" d="M248.94 2.68949L249.183 2.7498C250.196 3.35286 251.067 4.03633 251.796 4.80021C252.566 5.52389 253.255 6.30788 253.863 7.15217C254.511 7.95625 255.017 8.84074 255.382 9.80564C256.922 13.5044 255.585 17.6455 251.371 22.2288C249.588 24.1586 247.583 25.8069 245.354 27.1739C245.921 27.5759 246.448 27.8775 246.934 28.0785C247.461 28.2393 248.19 28.581 249.122 29.1037C250.054 29.5861 250.662 30.5309 250.945 31.9381C251.229 33.305 251.148 34.8529 250.702 36.5817C250.297 38.3105 249.527 40.0995 248.393 41.9489C247.299 43.7581 245.861 45.3864 244.078 46.8338C240.026 50.1707 235.326 51.5779 229.978 51.0552C229.208 51.0552 228.722 50.9949 228.52 50.8743C228.317 50.7537 228.155 50.6532 228.033 50.5727C227.912 50.4923 227.648 50.432 227.243 50.3918C226.23 51.1959 225.076 51.6985 223.779 51.8995C222.483 52.1005 221.247 52 220.072 51.598C218.937 51.1959 217.965 50.5124 217.155 49.5475C216.385 48.5826 216 47.3162 216 45.7482C216.122 44.7029 216.324 43.8787 216.608 43.2757C216.486 42.9138 216.425 42.4716 216.425 41.9489C217.803 34.672 219.1 29.1037 220.315 25.2441C222.787 17.5651 225.461 11.7757 228.337 7.87584C230.687 4.57909 233.949 2.44827 238.122 1.48336C242.133 0.558667 245.739 0.96071 248.94 2.68949ZM230.039 44.7833C230.525 44.6627 230.93 44.6426 231.254 44.723C231.619 44.7632 232.045 44.7431 232.531 44.6627C233.706 44.5421 235.286 43.8184 237.271 42.4917C238.527 41.2454 239.196 40.0191 239.277 38.813C239.358 37.6069 239.175 36.843 238.73 36.5214C238.284 36.1595 237.676 35.9786 236.906 35.9786C236.177 35.9786 235.347 36.0992 234.415 36.3404C233.523 36.5415 232.652 36.6621 231.801 36.7023V36.8229C231.599 37.627 231.396 38.3306 231.194 38.9336C230.991 39.5367 230.809 40.1196 230.647 40.6825C230.282 42.0092 229.998 43.3762 229.796 44.7833H230.039ZM241.343 13.424C240.128 13.2632 238.811 14.208 237.393 16.2584C236.501 17.545 235.813 19.4949 235.326 22.1081C236.177 21.7463 237.008 21.4448 237.818 21.2035C238.669 20.9221 239.459 20.6206 240.188 20.299C241.971 19.5351 243.247 18.6104 244.017 17.5249C244.908 16.4795 245.192 15.5951 244.868 14.8714C244.382 14.2281 243.592 13.6452 242.498 13.1225C242.174 13.4039 241.789 13.5044 241.343 13.424ZM240.431 13.1828H240.614H240.431Z" fill="#0C0D0D"/>
<path id="Vector_3" d="M220.404 7.16932C219.009 11.5746 217.713 15.5555 216.517 19.1121C215.36 22.6687 214.284 25.9424 213.287 28.9331C212.33 31.9239 211.433 34.6923 210.596 37.2385C209.759 39.7443 208.981 42.149 208.264 44.4527C207.865 47.1201 206.569 48.9994 204.376 50.0907C203.1 50.6969 201.585 51 199.831 51C198.077 51 196.761 50.7979 195.884 50.3938C195.007 50.03 194.449 49.4844 194.209 48.7569C193.93 48.0295 193.93 47.1605 194.209 46.1501C194.449 45.0993 194.887 43.6848 195.525 41.9065C196.163 40.0878 196.96 37.6427 197.917 34.5711C198.914 31.4995 199.951 28.3875 201.027 25.2351C203.698 17.354 205.812 11.8979 207.366 8.86677C207.965 7.73514 208.563 6.98745 209.161 6.62371C209.759 6.21955 210.337 5.93664 210.895 5.77498C211.453 5.5729 211.971 5.35062 212.45 5.10812C212.928 4.86563 213.347 4.2594 213.706 3.28943C214.105 2.31945 214.802 1.65259 215.799 1.28885C216.836 0.925112 217.793 0.904905 218.67 1.22823C219.587 1.51114 220.264 2.15779 220.703 3.16818C221.181 4.13815 221.082 5.47186 220.404 7.16932Z" fill="#0C0D0D"/>
<path id="Vector_4" d="M168.426 46.24L168 7.20826C168 6.24153 168.385 5.41578 169.156 4.73101C169.967 4.00597 170.879 3.50246 171.893 3.2205C172.906 2.93853 173.859 2.89825 174.751 3.09966C175.644 3.30106 176.211 3.8247 176.455 4.67059C177.225 6.20125 177.752 8.31597 178.036 11.0148C178.563 16.0498 178.827 20.4001 178.827 24.0656C179.232 24.7101 179.739 25.0122 180.347 24.9719C182.091 20.7425 184.017 16.6742 186.126 12.767C188.234 8.85976 189.593 6.36237 190.201 5.2748C190.809 4.14695 191.539 3.36148 192.39 2.91839C193.242 2.47531 194.154 2.19335 195.128 2.0725C197.236 1.83082 199.223 2.19335 201.088 3.16008C202.508 3.64344 203.339 4.46919 203.582 5.63732C204.515 7.49022 203.886 9.62508 201.697 12.0419C199.142 16.07 196.567 20.5209 193.972 25.3949C189.025 34.7802 185.882 40.5604 184.544 42.7356C183.206 44.9107 182.233 46.4615 181.625 47.388C181.016 48.2741 180.327 49.0193 179.557 49.6235C178.178 50.7111 176.515 51.1542 174.569 50.9528C171.163 50.832 169.176 49.7645 168.608 47.7505C168.487 47.1866 168.426 46.6831 168.426 46.24Z" fill="#0C0D0D"/>
<path id="Vector_5" d="M162.414 6.70272C163.777 7.42962 164.639 8.49979 165 9.91321C164.198 14.4362 163.476 18.9389 162.835 23.4215C162.193 27.8637 161.572 31.5991 160.97 34.6279C160.369 37.6163 159.948 39.8576 159.707 41.3517C159.507 42.8459 159.266 44.3401 158.985 45.8343L158.625 47.1064C158.544 47.5506 158.464 47.9544 158.384 48.3179C158.304 48.7217 158.224 49.1458 158.143 49.59C157.021 50.8822 155.497 51.5284 153.572 51.5284C151.527 51.5284 149.903 51.0034 148.701 49.9534C147.979 49.3881 147.859 48.1967 148.34 46.3795C148.54 45.6526 148.66 44.7238 148.701 43.593C148.781 42.4219 148.861 41.4527 148.941 40.6854V40.5643C147.738 41.0085 146.656 41.594 145.693 42.3209C144.731 43.0075 144.129 43.4517 143.889 43.6536C143.648 43.8151 143.328 43.9565 142.927 44.0776C142.526 44.1584 142.165 44.219 141.844 44.2594C141.082 44.2997 140.561 44.4209 140.28 44.6228C137.955 48.8227 135.869 51.1649 134.025 51.6495C132.862 52.013 131.699 52.0937 130.537 51.8918C129.374 51.7303 128.452 51.0438 127.77 49.8323C126.487 48.6208 126.808 45.3093 128.732 39.8979C129.775 37.0307 131.258 33.5981 133.183 29.6002C135.148 25.5618 137.032 22.0484 138.837 19.0601C142.726 12.6391 146.996 7.22771 151.648 2.82591C152.41 2.50284 153.232 2.13939 154.114 1.73555C154.996 1.29134 155.858 1.04904 156.7 1.00865C157.582 0.968269 158.484 1.06923 159.406 1.31153C160.329 1.55383 161.111 1.91728 161.752 2.40188C163.236 3.53262 163.456 4.96623 162.414 6.70272ZM149.543 22.634C148.701 25.057 147.859 27.2983 147.016 29.3579C146.174 31.377 145.453 33.1539 144.851 34.6885L149.603 34.5067C149.924 31.9222 150.284 29.3578 150.685 26.8137C151.086 24.2695 151.467 21.7254 151.828 19.1812L149.543 22.634ZM147.919 34.749C148.48 34.749 149.041 34.7087 149.603 34.6279V34.5673C149.081 34.6077 148.6 34.6481 148.159 34.6885C147.718 34.7289 147.638 34.749 147.919 34.749Z" fill="#0C0D0D"/>
<path id="Vector_6" d="M122.74 40.8123C124.497 40.7713 125.682 41.1815 126.295 42.0431C126.908 42.9046 127.092 43.8892 126.846 44.9969C126.642 46.1046 126.07 47.2123 125.13 48.32C124.231 49.3867 123.107 50.1251 121.759 50.5354C119.266 51.6431 116.038 52.3815 112.074 52.7508C108.519 53.12 105.005 53.079 101.531 52.6277C99.4473 52.3405 97.9967 51.8277 97.1794 51.0892C95.5448 49.6533 94.8297 47.6431 95.0341 45.0585C95.1158 43.8277 95.361 42.8226 95.7696 42.0431C96.4234 40.9764 97.445 39.4174 98.8344 37.3662C100.265 35.3149 101.674 33.4482 103.064 31.7662C104.494 30.0841 105.904 28.4636 107.293 26.9046C112.728 20.7918 115.936 16.9559 116.917 15.3969C117.121 15.0687 117.427 14.4328 117.836 13.4892C114.117 14.3508 110.378 14.2892 106.619 13.3046C105.189 12.9354 104.208 12.0123 103.677 10.5354C103.105 8.93539 103.513 7.43795 104.903 6.04308C106.905 3.86872 109.868 2.24821 113.79 1.18154C117.468 0.196924 121.146 -0.172307 124.824 0.0738458C125.478 0.278974 125.988 0.484102 126.356 0.68923C126.724 0.853333 127.132 1.20205 127.582 1.73538L127.643 2.90462C127.848 2.98667 128.175 3.06872 128.624 3.15077C129.114 3.23282 129.482 3.33538 129.727 3.45846C129.973 3.54051 130.238 3.6841 130.524 3.88923C130.81 4.09436 131.076 4.38154 131.321 4.75077C131.811 5.57128 132.036 6.94564 131.995 8.87385C131.995 10.761 131.546 12.8328 130.647 15.0892C129.789 17.3046 128.726 19.479 127.459 21.6123C126.193 23.7456 124.824 25.7764 123.353 27.7046C121.922 29.5918 120.696 31.1918 119.675 32.5046C118.653 33.8174 117.836 34.8841 117.223 35.7046C116.651 36.4841 116.222 37.161 115.936 37.7354C115.405 38.761 115.445 39.561 116.058 40.1354L122.74 40.8123ZM123.475 40.9354H122.924H123.475Z" fill="#0C0D0D"/>
<path id="Vector_7" d="M88.7397 40.8123C90.4968 40.7713 91.6818 41.1815 92.2948 42.0431C92.9078 42.9046 93.0916 43.8892 92.8465 44.9969C92.6421 46.1046 92.0701 47.2123 91.1302 48.32C90.2312 49.3867 89.1074 50.1251 87.7589 50.5354C85.2662 51.6431 82.038 52.3815 78.0742 52.7508C74.5191 53.12 71.0048 53.079 67.5314 52.6277C65.4473 52.3405 63.9967 51.8277 63.1794 51.0892C61.5448 49.6533 60.8297 47.6431 61.0341 45.0585C61.1158 43.8277 61.361 42.8226 61.7696 42.0431C62.4234 40.9764 63.445 39.4174 64.8344 37.3662C66.2646 35.3149 67.6744 33.4482 69.0638 31.7662C70.494 30.0841 71.9038 28.4636 73.2932 26.9046C78.728 20.7918 81.9358 16.9559 82.9166 15.3969C83.1209 15.0687 83.4274 14.4328 83.836 13.4892C80.1174 14.3508 76.3784 14.2892 72.6189 13.3046C71.1887 12.9354 70.208 12.0123 69.6767 10.5354C69.1046 8.93539 69.5133 7.43795 70.9026 6.04308C72.905 3.86872 75.8676 2.24821 79.7905 1.18154C83.4682 0.196924 87.146 -0.172307 90.8237 0.0738458C91.4775 0.278974 91.9883 0.484102 92.3561 0.68923C92.7239 0.853333 93.1325 1.20205 93.582 1.73538L93.6433 2.90462C93.8476 2.98667 94.1745 3.06872 94.624 3.15077C95.1144 3.23282 95.4822 3.33538 95.7274 3.45846C95.9725 3.54051 96.2382 3.6841 96.5242 3.88923C96.8102 4.09436 97.0759 4.38154 97.321 4.75077C97.8114 5.57128 98.0362 6.94564 97.9953 8.87385C97.9953 10.761 97.5458 12.8328 96.6468 15.0892C95.7886 17.3046 94.7262 19.479 93.4594 21.6123C92.1926 23.7456 90.8237 25.7764 89.3526 27.7046C87.9224 29.5918 86.6965 31.1918 85.6749 32.5046C84.6533 33.8174 83.836 34.8841 83.2231 35.7046C82.651 36.4841 82.2219 37.161 81.9358 37.7354C81.4046 38.761 81.4455 39.561 82.0584 40.1354L88.7397 40.8123ZM89.4752 40.9354H88.9235H89.4752Z" fill="#0C0D0D"/>
<path id="Vector_8" d="M64.404 7.16932C63.0086 11.5746 61.7128 15.5555 60.5167 19.1121C59.3604 22.6687 58.2839 25.9424 57.2872 28.9331C56.3303 31.9239 55.4332 34.6923 54.596 37.2385C53.7587 39.7443 52.9812 42.149 52.2636 44.4527C51.8648 47.1201 50.5691 48.9994 48.3762 50.0907C47.1004 50.6969 45.5853 51 43.831 51C42.0767 51 40.761 50.7979 39.8839 50.3938C39.0067 50.03 38.4485 49.4844 38.2093 48.7569C37.9302 48.0295 37.9302 47.1605 38.2093 46.1501C38.4485 45.0993 38.8871 43.6848 39.525 41.9065C40.163 40.0878 40.9604 37.6427 41.9172 34.5711C42.914 31.4995 43.9506 28.3875 45.0271 25.2351C47.6984 17.354 49.8115 11.8979 51.3665 8.86677C51.9645 7.73514 52.5626 6.98745 53.1606 6.62371C53.7587 6.21955 54.3368 5.93664 54.895 5.77498C55.4532 5.5729 55.9715 5.35062 56.4499 5.10812C56.9284 4.86563 57.347 4.2594 57.7058 3.28943C58.1045 2.31945 58.8023 1.65259 59.799 1.28885C60.8356 0.925112 61.7925 0.904905 62.6697 1.22823C63.5867 1.51114 64.2645 2.15779 64.703 3.16818C65.1815 4.13815 65.0818 5.47186 64.404 7.16932Z" fill="#0C0D0D"/>
<path id="Vector_9" d="M33.3421 35.0128C31.7047 36.2232 29.9854 37.1108 28.1842 37.6756C26.424 38.2001 24.6637 38.3413 22.9035 38.0992C21.1433 37.8571 19.6287 37.1108 18.3597 35.8601C17.2135 39.4508 16.4357 43.0011 16.0263 46.5111C15.8626 47.1566 15.576 47.7416 15.1667 48.2661C14.4298 50.4043 12.8129 51.8366 10.3158 52.5628C7.85965 53.2486 5.56725 53.1276 3.4386 52.1997C2.45614 51.7559 1.63743 51.1104 0.982456 50.2631C0.327485 49.4159 0 48.3871 0 47.1768C2.82456 37.5344 5.54678 29.6268 8.16667 23.4541C8.73977 22.1631 9.19006 21.1141 9.51754 20.3072C9.88597 19.5003 10.2135 18.8145 10.5 18.2496C10.7865 17.6848 11.0322 17.2007 11.2368 16.7972C11.4825 16.3534 11.769 15.8693 12.0965 15.3448C12.8333 14.1345 13.6725 12.7224 14.614 11.1086C15.5965 9.45452 16.4152 8.224 17.0702 7.41711C17.7661 6.61022 18.4825 5.92436 19.2193 5.35953C19.9971 4.75436 20.8363 4.18954 21.7368 3.66506C22.6784 3.14058 23.845 2.45472 25.2368 1.60748C26.6287 0.760243 28.1023 0.255936 29.6579 0.0945593C31.2544 -0.107166 32.769 0.0138675 34.2018 0.45766C37.231 1.38559 39.462 3.46334 40.8947 6.69091C42.1228 9.67641 42.3275 13.6907 41.5088 18.7338C40.2398 26.4396 37.5175 31.866 33.3421 35.0128ZM20.5088 29.6268C23.8655 28.9006 26.1988 26.7422 27.5088 23.1515C28.614 20.1257 28.8392 16.6964 28.1842 12.8636C27.2427 14.4371 26.383 16.071 25.6053 17.7655C24.8684 19.46 24.193 20.9729 23.5789 22.3043C22.2281 25.2898 21.2047 27.7306 20.5088 29.6268Z" fill="#0C0D0D"/>
</g>
</svg>
