<svg viewBox="0 0 78 78" width="78" height="78" fill="none" xmlns="http://www.w3.org/2000/svg">
<g id="Frame 4">
<circle id="Ellipse 1" cx="39" cy="39.0001" r="29" fill="#ECF2EF" stroke="#0C0D0D" stroke-width="4"/>
<circle id="Ellipse 4" cx="39" cy="39.0001" r="37" fill="#ECF2EF" stroke="#0C0D0D" stroke-width="4"/>
<circle id="Ellipse 2" cx="39" cy="39.0001" r="18" fill="#B82508" stroke="#0C0D0D" stroke-width="4"/>
<circle id="Ellipse 5" cx="39" cy="39.0001" r="29" fill="#B82508" stroke="#0C0D0D" stroke-width="4"/>
<path id="Ellipse 8" d="M29.1075 68.3793C24.4637 66.8156 20.2567 64.1734 16.8316 60.6694C13.4065 57.1654 10.8608 52.8994 9.40323 48.2212L39 39.0001L29.1075 68.3793Z" fill="#B82508"/>
<path id="Ellipse 7" d="M59 39.0001L60.8252 39.8174L61.1914 39.0001L60.8252 38.1827L59 39.0001ZM59 39.0001C60.8116 39.8111 60.8254 39.8178 60.8252 39.8184L60.8242 39.8194C60.8237 39.8205 60.8231 39.8225 60.8223 39.8243C60.8207 39.8278 60.8181 39.833 60.8154 39.8389C60.8101 39.8507 60.8025 39.867 60.793 39.8877C60.7736 39.9301 60.7463 39.9915 60.71 40.0694C60.6372 40.2256 60.5301 40.4511 60.3916 40.7354C60.1147 41.3038 59.7094 42.1102 59.1885 43.0752C58.1492 45.0007 56.6389 47.5809 54.7627 50.1729C52.8944 52.7539 50.6136 55.4157 48.0186 57.4493C45.4325 59.4758 42.3754 61.0001 39 61.0001C26.8498 61.0001 17 51.1503 17 39.0001C17 26.8498 26.8498 17.0001 39 17.0001C42.3754 17.0001 45.4325 18.5243 48.0186 20.5508C50.6136 22.5844 52.8944 25.2462 54.7627 27.8272C56.6389 30.4192 58.1492 32.9994 59.1885 34.9249C59.7094 35.8899 60.1147 36.6963 60.3916 37.2647C60.5301 37.549 60.6372 37.7745 60.71 37.9307C60.7463 38.0086 60.7736 38.07 60.793 38.1124C60.8025 38.1332 60.8101 38.1494 60.8154 38.1612C60.8181 38.1671 60.8207 38.1723 60.8223 38.1758C60.8231 38.1776 60.8237 38.1796 60.8242 38.1807L60.8252 38.1817C60.8254 38.1823 60.8116 38.189 59 39.0001Z" fill="#F2D96B" stroke="#0C0D0D" stroke-width="4"/>
<circle id="Ellipse 6" cx="39" cy="39.0001" r="29" stroke="#0C0D0D" stroke-width="4"/>
<g id="Ellipse 9">
<mask id="path-8-inside-1_0_14" fill="white">
<path d="M28.9061 76.6712C37.1554 78.8815 45.9021 78.323 53.8033 75.0814C61.7044 71.8398 68.3231 66.0942 72.6429 58.7271C76.9628 51.3599 78.745 42.7784 77.7158 34.3004C76.6867 25.8223 72.9031 17.9165 66.9461 11.7968C60.9891 5.67714 53.188 1.68201 44.7408 0.424885C36.2935 -0.832236 27.6672 0.718165 20.1863 4.83801C12.7055 8.95786 6.78376 15.4194 3.33048 23.2303C-0.12279 31.0413 -0.916685 39.7699 1.07071 48.0757L39 39.0001L28.9061 76.6712Z"/>
</mask>
<path d="M28.9061 76.6712C37.1554 78.8815 45.9021 78.323 53.8033 75.0814C61.7044 71.8398 68.3231 66.0942 72.6429 58.7271C76.9628 51.3599 78.745 42.7784 77.7158 34.3004C76.6867 25.8223 72.9031 17.9165 66.9461 11.7968C60.9891 5.67714 53.188 1.68201 44.7408 0.424885C36.2935 -0.832236 27.6672 0.718165 20.1863 4.83801C12.7055 8.95786 6.78376 15.4194 3.33048 23.2303C-0.12279 31.0413 -0.916685 39.7699 1.07071 48.0757L39 39.0001L28.9061 76.6712Z" fill="#9FAAA5" stroke="#0C0D0D" stroke-width="8" mask="url(#path-8-inside-1_0_14)"/>
</g>
<g id="Ellipse 10">
<mask id="path-9-inside-2_0_14" fill="white">
<path d="M31.2355 67.9778C37.581 69.6781 44.3093 69.2485 50.3871 66.7549C56.4649 64.2614 61.5562 59.8417 64.8792 54.1747C68.2021 48.5076 69.5731 41.9065 68.7814 35.3849C67.9898 28.8634 65.0793 22.7819 60.497 18.0745C55.9147 13.367 49.9139 10.2939 43.416 9.32685C36.9181 8.35983 30.2825 9.55245 24.528 12.7216C18.7735 15.8907 14.2183 20.8611 11.5619 26.8695C8.90555 32.8779 8.29486 39.5922 9.82362 45.9813L39 39.0001L31.2355 67.9778Z"/>
</mask>
<path d="M31.2355 67.9778C37.581 69.6781 44.3093 69.2485 50.3871 66.7549C56.4649 64.2614 61.5562 59.8417 64.8792 54.1747C68.2021 48.5076 69.5731 41.9065 68.7814 35.3849C67.9898 28.8634 65.0793 22.7819 60.497 18.0745C55.9147 13.367 49.9139 10.2939 43.416 9.32685C36.9181 8.35983 30.2825 9.55245 24.528 12.7216C18.7735 15.8907 14.2183 20.8611 11.5619 26.8695C8.90555 32.8779 8.29486 39.5922 9.82362 45.9813L39 39.0001L31.2355 67.9778Z" fill="#9FAAA5" stroke="#0C0D0D" stroke-width="8" mask="url(#path-9-inside-2_0_14)"/>
</g>
</g>
</svg>
