<svg width="300" height="300" viewBox="0 0 300 300" fill="none" xmlns="http://www.w3.org/2000/svg">
<rect x="2" y="2" width="296" height="296" rx="148" fill="#9FAAA5"/>
<rect x="2" y="2" width="296" height="296" rx="148" stroke="#0C0D0D" stroke-width="4"/>
<rect x="18" y="18" width="264" height="264" rx="132" fill="#9FAAA5"/>
<rect x="18" y="18" width="264" height="264" rx="132" stroke="#0C0D0D" stroke-width="4"/>
<g filter="url(#filter0_d_115_151)">
<rect x="32" y="32" width="236" height="236" rx="118" fill="#ECF2EF" shape-rendering="crispEdges"/>
<rect x="34" y="34" width="232" height="232" rx="116" stroke="#0C0D0D" stroke-width="4" shape-rendering="crispEdges"/>
<rect x="48" y="48" width="204" height="204" rx="102" fill="#B82508"/>
<rect x="64" y="64" width="172" height="172" rx="86" fill="#F2D96B"/>
<path d="M141.898 123.358C137.494 126.315 132.096 127.4 126.891 126.376C121.687 125.352 117.102 122.302 114.146 117.898C111.19 113.494 110.104 108.096 111.128 102.891C112.152 97.6866 115.202 93.102 119.606 90.146L130.752 106.752L141.898 123.358Z" fill="#08B869"/>
<path d="M183.53 182.753C182.592 177.532 183.766 172.153 186.794 167.798C189.822 163.443 194.456 160.469 199.676 159.53C204.897 158.592 210.277 159.766 214.632 162.794C218.987 165.822 221.961 170.456 222.899 175.676L203.215 179.215L183.53 182.753Z" fill="#08B869"/>
<path d="M133.657 151.476C135.687 146.576 139.581 142.683 144.482 140.654C149.383 138.625 154.889 138.626 159.789 140.656C164.69 142.687 168.583 146.581 170.612 151.482C172.641 156.383 172.64 161.889 170.609 166.789L152.133 159.133L133.657 151.476Z" fill="#08B869"/>
<path d="M88.8638 157.119C92.5805 153.334 97.6484 151.182 102.953 151.134C108.257 151.086 113.363 153.147 117.147 156.864C120.931 160.581 123.084 165.648 123.132 170.952C123.18 176.257 121.119 181.362 117.402 185.147L103.133 171.133L88.8638 157.119Z" fill="#08B869"/>
<path d="M167.116 131.331C163.637 127.326 161.892 122.104 162.264 116.812C162.636 111.521 165.094 106.594 169.099 103.116C173.103 99.6373 178.326 97.892 183.617 98.2639C188.908 98.6358 193.835 101.094 197.314 105.099L182.215 118.215L167.116 131.331Z" fill="#08B869"/>
<path d="M127.027 209.644C125.959 204.449 126.999 199.042 129.917 194.612C132.836 190.183 137.395 187.095 142.59 186.027C147.786 184.959 153.193 185.999 157.622 188.917C162.051 191.836 165.14 196.395 166.208 201.59L146.617 205.617L127.027 209.644Z" fill="#08B869"/>
</g>
<defs>
<filter id="filter0_d_115_151" x="32" y="32" width="236" height="243" filterUnits="userSpaceOnUse" color-interpolation-filters="sRGB">
<feFlood flood-opacity="0" result="BackgroundImageFix"/>
<feColorMatrix in="SourceAlpha" type="matrix" values="0 0 0 0 0 0 0 0 0 0 0 0 0 0 0 0 0 0 127 0" result="hardAlpha"/>
<feOffset dy="7"/>
<feComposite in2="hardAlpha" operator="out"/>
<feColorMatrix type="matrix" values="0 0 0 0 0 0 0 0 0 0 0 0 0 0 0 0 0 0 0.5 0"/>
<feBlend mode="normal" in2="BackgroundImageFix" result="effect1_dropShadow_115_151"/>
<feBlend mode="normal" in="SourceGraphic" in2="effect1_dropShadow_115_151" result="shape"/>
</filter>
</defs>
</svg>
