<svg width="300" height="300" viewBox="0 0 300 300" fill="none" xmlns="http://www.w3.org/2000/svg">
<rect x="2" y="2" width="296" height="296" rx="148" fill="#9FAAA5"/>
<rect x="2" y="2" width="296" height="296" rx="148" stroke="#0C0D0D" stroke-width="4"/>
<rect x="18" y="18" width="264" height="264" rx="132" fill="#9FAAA5"/>
<rect x="18" y="18" width="264" height="264" rx="132" stroke="#0C0D0D" stroke-width="4"/>
<g filter="url(#filter0_d_115_310)">
<rect x="32" y="32" width="236" height="236" rx="118" fill="#ECF2EF" shape-rendering="crispEdges"/>
<rect x="34" y="34" width="232" height="232" rx="116" stroke="#0C0D0D" stroke-width="4" shape-rendering="crispEdges"/>
<rect x="48" y="48" width="204" height="204" rx="102" fill="#B82508"/>
<rect x="64" y="64" width="172" height="172" rx="86" fill="#F2D96B"/>
<circle cx="139" cy="150" r="16" fill="#B82508"/>
<circle cx="99" cy="130" r="16" fill="#B82508"/>
<circle cx="129" cy="100" r="16" fill="#B82508"/>
<circle cx="207" cy="123" r="16" fill="#B82508"/>
<circle cx="177" cy="143" r="16" fill="#B82508"/>
<circle cx="171" cy="100" r="16" fill="#B82508"/>
<circle cx="211" cy="170" r="16" fill="#B82508"/>
<circle cx="172" cy="193" r="16" fill="#B82508"/>
<circle cx="131" cy="200" r="16" fill="#B82508"/>
<circle cx="99" cy="172" r="16" fill="#B82508"/>
</g>
<defs>
<filter id="filter0_d_115_310" x="32" y="32" width="236" height="243" filterUnits="userSpaceOnUse" color-interpolation-filters="sRGB">
<feFlood flood-opacity="0" result="BackgroundImageFix"/>
<feColorMatrix in="SourceAlpha" type="matrix" values="0 0 0 0 0 0 0 0 0 0 0 0 0 0 0 0 0 0 127 0" result="hardAlpha"/>
<feOffset dy="7"/>
<feComposite in2="hardAlpha" operator="out"/>
<feColorMatrix type="matrix" values="0 0 0 0 0 0 0 0 0 0 0 0 0 0 0 0 0 0 0.5 0"/>
<feBlend mode="normal" in2="BackgroundImageFix" result="effect1_dropShadow_115_310"/>
<feBlend mode="normal" in="SourceGraphic" in2="effect1_dropShadow_115_310" result="shape"/>
</filter>
</defs>
</svg>
