<svg width="300" height="300" viewBox="0 0 300 300" fill="none" xmlns="http://www.w3.org/2000/svg">
<rect x="2" y="2" width="296" height="296" rx="148" fill="#9FAAA5"/>
<rect x="2" y="2" width="296" height="296" rx="148" stroke="#0C0D0D" stroke-width="4"/>
<rect x="18" y="18" width="264" height="264" rx="132" fill="#9FAAA5"/>
<rect x="18" y="18" width="264" height="264" rx="132" stroke="#0C0D0D" stroke-width="4"/>
<g filter="url(#filter0_d_115_700)">
<rect x="32" y="32" width="236" height="236" rx="118" fill="#ECF2EF" shape-rendering="crispEdges"/>
<rect x="34" y="34" width="232" height="232" rx="116" stroke="#0C0D0D" stroke-width="4" shape-rendering="crispEdges"/>
<rect x="48" y="48" width="204" height="204" rx="102" fill="#B82508"/>
<circle cx="30" cy="30" r="30" transform="matrix(-1 0 0 1 216 157)" fill="#F2D96B"/>
<ellipse cx="199" cy="157" rx="8" ry="12" transform="rotate(-28.9702 199 157)" fill="#0C0D0D"/>
<ellipse cx="127.411" cy="205.282" rx="8" ry="12" transform="rotate(25.6867 127.411 205.282)" fill="#0C0D0D"/>
<ellipse cx="129.411" cy="100.282" rx="8" ry="12" transform="rotate(-38.1303 129.411 100.282)" fill="#0C0D0D"/>
<circle cx="107" cy="137" r="20" fill="#F2D96B"/>
<circle cx="179" cy="106" r="20" fill="#F2D96B"/>
<path d="M123.46 169.304C124.471 171.728 124.994 174.328 125 176.954C125.006 179.581 124.495 182.183 123.495 184.611C122.495 187.04 121.027 189.248 119.174 191.11C117.321 192.971 115.12 194.449 112.696 195.46C110.272 196.471 107.672 196.994 105.046 197C102.419 197.006 99.8174 196.495 97.3886 195.495C94.9598 194.495 92.7516 193.027 90.8902 191.174C89.0288 189.321 87.5506 187.12 86.5399 184.696L92.7647 182.101C93.4346 183.708 94.4143 185.167 95.6481 186.395C96.8818 187.623 98.3454 188.596 99.9552 189.258C101.565 189.921 103.289 190.26 105.03 190.256C106.771 190.252 108.494 189.905 110.101 189.235C111.708 188.565 113.167 187.586 114.395 186.352C115.623 185.118 116.596 183.655 117.258 182.045C117.921 180.435 118.26 178.71 118.256 176.97C118.252 175.229 117.905 173.506 117.235 171.899L123.46 169.304Z" fill="#08B869"/>
<path d="M182.886 110.151C181.462 106.832 180.963 103.189 181.443 99.6087C181.923 96.0287 183.363 92.6455 185.611 89.8182C187.859 86.991 190.831 84.8253 194.21 83.5512C197.59 82.277 201.252 81.9419 204.807 82.5815L203.613 89.2191C201.257 88.7952 198.83 89.0172 196.589 89.8617C194.349 90.7062 192.38 92.1416 190.89 94.0155C189.4 95.8894 188.445 98.1318 188.127 100.505C187.809 102.877 188.14 105.292 189.084 107.492L182.886 110.151Z" fill="#08B869"/>
<path d="M208.678 130.328C212.624 130.605 216.399 132.045 219.526 134.467C222.653 136.89 224.992 140.185 226.247 143.936C227.501 147.688 227.615 151.727 226.574 155.543C225.533 159.359 223.384 162.781 220.398 165.376L215.974 160.285C217.953 158.565 219.378 156.297 220.068 153.768C220.758 151.239 220.682 148.562 219.851 146.075C219.019 143.589 217.469 141.405 215.396 139.799C213.324 138.194 210.821 137.239 208.206 137.056L208.678 130.328Z" fill="#08B869"/>
</g>
<defs>
<filter id="filter0_d_115_700" x="32" y="32" width="236" height="243" filterUnits="userSpaceOnUse" color-interpolation-filters="sRGB">
<feFlood flood-opacity="0" result="BackgroundImageFix"/>
<feColorMatrix in="SourceAlpha" type="matrix" values="0 0 0 0 0 0 0 0 0 0 0 0 0 0 0 0 0 0 127 0" result="hardAlpha"/>
<feOffset dy="7"/>
<feComposite in2="hardAlpha" operator="out"/>
<feColorMatrix type="matrix" values="0 0 0 0 0 0 0 0 0 0 0 0 0 0 0 0 0 0 0.5 0"/>
<feBlend mode="normal" in2="BackgroundImageFix" result="effect1_dropShadow_115_700"/>
<feBlend mode="normal" in="SourceGraphic" in2="effect1_dropShadow_115_700" result="shape"/>
</filter>
</defs>
</svg>
