<svg width="300" height="300" viewBox="0 0 300 300" fill="none" xmlns="http://www.w3.org/2000/svg">
<rect x="2" y="2" width="296" height="296" rx="148" fill="#9FAAA5"/>
<rect x="2" y="2" width="296" height="296" rx="148" stroke="#0C0D0D" stroke-width="4"/>
<rect x="18" y="18" width="264" height="264" rx="132" fill="#9FAAA5"/>
<rect x="18" y="18" width="264" height="264" rx="132" stroke="#0C0D0D" stroke-width="4"/>
<g filter="url(#filter0_d_115_484)">
<rect x="32" y="32" width="236" height="236" rx="118" fill="#ECF2EF" shape-rendering="crispEdges"/>
<rect x="34" y="34" width="232" height="232" rx="116" stroke="#0C0D0D" stroke-width="4" shape-rendering="crispEdges"/>
<rect x="48" y="48" width="204" height="204" rx="102" fill="#B82508"/>
<rect x="64" y="64" width="172" height="172" rx="86" fill="#F2D96B"/>
<path d="M147.142 180.899C147.024 184.067 146.155 187.161 144.607 189.927C143.058 192.693 140.874 195.051 138.235 196.807L134.499 191.192C136.248 190.028 137.696 188.465 138.722 186.632C139.749 184.799 140.325 182.748 140.403 180.648L147.142 180.899Z" fill="#B82508"/>
<path d="M166.142 200.899C166.024 204.067 165.155 207.161 163.607 209.927C162.058 212.693 159.874 215.051 157.235 216.807L153.499 211.192C155.248 210.028 156.696 208.465 157.722 206.632C158.749 204.799 159.325 202.748 159.403 200.648L166.142 200.899Z" fill="#B82508"/>
<path d="M185.043 193.171C181.886 193.455 178.706 192.985 175.767 191.798C172.827 190.612 170.212 188.744 168.136 186.348L173.233 181.932C174.609 183.52 176.342 184.758 178.291 185.544C180.239 186.331 182.346 186.643 184.439 186.454L185.043 193.171Z" fill="#B82508"/>
<path d="M183.675 173.79C181.692 171.316 180.325 168.407 179.688 165.302C179.05 162.197 179.16 158.984 180.007 155.93L186.506 157.733C185.944 159.758 185.871 161.887 186.294 163.945C186.717 166.003 187.622 167.932 188.937 169.571L183.675 173.79Z" fill="#B82508"/>
<path d="M203.675 193.79C201.692 191.316 200.325 188.407 199.688 185.302C199.05 182.197 199.16 178.984 200.007 175.93L206.506 177.733C205.944 179.758 205.871 181.887 206.294 183.945C206.717 186.003 207.622 187.932 208.937 189.571L203.675 193.79Z" fill="#B82508"/>
<path d="M189.596 99.3206C192.755 99.0581 195.931 99.5504 198.863 100.757C201.794 101.963 204.397 103.849 206.457 106.259L201.329 110.64C199.965 109.043 198.239 107.793 196.296 106.993C194.353 106.194 192.248 105.868 190.154 106.042L189.596 99.3206Z" fill="#B82508"/>
<path d="M179.486 121.21C182.645 120.948 185.821 121.44 188.753 122.647C191.684 123.853 194.287 125.739 196.347 128.149L191.219 132.53C189.855 130.933 188.129 129.683 186.186 128.883C184.243 128.084 182.138 127.757 180.044 127.931L179.486 121.21Z" fill="#B82508"/>
<path d="M120.774 148.948C117.757 147.975 115.015 146.299 112.773 144.057C110.531 141.816 108.854 139.074 107.881 136.057L114.299 133.985C114.944 135.985 116.056 137.802 117.541 139.288C119.027 140.774 120.845 141.885 122.844 142.53L120.774 148.948Z" fill="#B82508"/>
<path d="M132.602 113.78C130.657 111.465 129.262 108.739 128.522 105.808C127.782 102.876 127.717 99.8149 128.331 96.8543L134.934 98.2233C134.527 100.186 134.571 102.215 135.061 104.158C135.551 106.101 136.476 107.907 137.765 109.442L132.602 113.78Z" fill="#B82508"/>
<path d="M107.543 120.429C104.297 118.124 101.813 114.903 100.408 111.178L106.719 108.799C107.65 111.268 109.296 113.403 111.448 114.93L107.543 120.429Z" fill="#B82508"/>
<path d="M152.225 114.67C151.365 112.188 151.002 109.561 151.158 106.94C151.313 104.318 151.983 101.752 153.13 99.3893L159.197 102.334C158.437 103.9 157.993 105.601 157.89 107.338C157.787 109.076 158.027 110.817 158.597 112.462L152.225 114.67Z" fill="#B82508"/>
<path d="M83.2245 153.67C81.9213 149.908 81.7703 145.843 82.7908 141.995L89.3095 143.724C88.6331 146.275 88.7332 148.969 89.597 151.462L83.2245 153.67Z" fill="#B82508"/>
<path d="M101.502 179.245C102.099 176.223 103.386 173.38 105.263 170.938C107.139 168.495 109.554 166.519 112.32 165.164L115.288 171.219C113.455 172.118 111.854 173.428 110.611 175.046C109.367 176.665 108.514 178.549 108.118 180.552L101.502 179.245Z" fill="#B82508"/>
<path d="M172.432 102.703C169.78 100.212 167.857 97.0447 166.871 93.542C165.885 90.0394 165.873 86.3341 166.837 82.8253L173.34 84.6115C172.701 86.9372 172.709 89.393 173.363 91.7145C174.016 94.0361 175.291 96.1353 177.049 97.7862L172.432 102.703Z" fill="#B82508"/>
<path d="M144.432 153.703C142.518 151.905 140.976 149.748 139.895 147.354C138.814 144.96 138.215 142.377 138.132 139.752L144.873 139.54C144.928 141.28 145.325 142.992 146.041 144.578C146.758 146.165 147.78 147.595 149.049 148.786L144.432 153.703Z" fill="#B82508"/>
<path d="M162.432 150.703C159.695 148.132 157.736 144.842 156.78 141.21C155.825 137.578 155.912 133.75 157.03 130.165L163.468 132.174C162.727 134.55 162.669 137.087 163.303 139.495C163.936 141.902 165.234 144.082 167.049 145.786L162.432 150.703Z" fill="#B82508"/>
<path d="M122.432 210.703C119.695 208.132 117.736 204.842 116.78 201.21C115.825 197.578 115.912 193.75 117.03 190.165L123.468 192.174C122.727 194.55 122.669 197.087 123.303 199.495C123.936 201.902 125.234 204.082 127.049 205.786L122.432 210.703Z" fill="#B82508"/>
<path d="M212.966 137.823C215.344 140.73 216.855 144.248 217.326 147.974C217.798 151.7 217.211 155.483 215.632 158.891L209.513 156.056C210.559 153.798 210.948 151.29 210.636 148.821C210.323 146.351 209.322 144.019 207.746 142.092L212.966 137.823Z" fill="#B82508"/>
</g>
<defs>
<filter id="filter0_d_115_484" x="32" y="32" width="236" height="243" filterUnits="userSpaceOnUse" color-interpolation-filters="sRGB">
<feFlood flood-opacity="0" result="BackgroundImageFix"/>
<feColorMatrix in="SourceAlpha" type="matrix" values="0 0 0 0 0 0 0 0 0 0 0 0 0 0 0 0 0 0 127 0" result="hardAlpha"/>
<feOffset dy="7"/>
<feComposite in2="hardAlpha" operator="out"/>
<feColorMatrix type="matrix" values="0 0 0 0 0 0 0 0 0 0 0 0 0 0 0 0 0 0 0.5 0"/>
<feBlend mode="normal" in2="BackgroundImageFix" result="effect1_dropShadow_115_484"/>
<feBlend mode="normal" in="SourceGraphic" in2="effect1_dropShadow_115_484" result="shape"/>
</filter>
</defs>
</svg>
